<svg width="22" height="27" viewBox="0 0 22 27" fill="none" xmlns="http://www.w3.org/2000/svg">
<path d="M11.0006 0C12.1295 -8.83079e-07 13.2153 0.433903 14.0333 1.21196C14.8513 1.99002 15.3389 3.05271 15.3954 4.18023L15.4009 4.40024H20.9012C21.1815 4.40055 21.4512 4.50792 21.6551 4.70039C21.859 4.89287 21.9817 5.15593 21.9981 5.43584C22.0145 5.71574 21.9235 5.99135 21.7435 6.20636C21.5636 6.42137 21.3083 6.55955 21.0299 6.59267L20.9012 6.60037H19.9672L18.6691 22.6096C18.5854 23.6426 18.1159 24.6063 17.3539 25.3089C16.592 26.0115 15.5935 26.4015 14.5571 26.4015H7.44411C6.40768 26.4015 5.4092 26.0115 4.64728 25.3089C3.88536 24.6063 3.41583 23.6426 3.33208 22.6096L2.03291 6.60037H1.10006C0.830619 6.60033 0.570561 6.50141 0.369211 6.32236C0.167862 6.14332 0.0392251 5.8966 0.00770039 5.62901L0 5.5003C3.55436e-05 5.23086 0.098957 4.9708 0.278002 4.76945C0.457047 4.56811 0.703763 4.43947 0.971354 4.40794L1.10006 4.40024H6.60037C6.60037 3.23323 7.06396 2.11401 7.88917 1.2888C8.71437 0.463596 9.83359 0 11.0006 0ZM8.52547 10.1756C8.3261 10.1756 8.13347 10.2478 7.98322 10.3788C7.83296 10.5099 7.73524 10.6909 7.70813 10.8884L7.70043 11.0006V19.8011L7.70813 19.9133C7.7353 20.1108 7.83304 20.2917 7.98329 20.4227C8.13354 20.5537 8.32614 20.6259 8.52547 20.6259C8.72481 20.6259 8.9174 20.5537 9.06765 20.4227C9.2179 20.2917 9.31565 20.1108 9.34282 19.9133L9.35052 19.8011V11.0006L9.34282 10.8884C9.3157 10.6909 9.21798 10.5099 9.06773 10.3788C8.91747 10.2478 8.72484 10.1756 8.52547 10.1756ZM13.4757 10.1756C13.2764 10.1756 13.0837 10.2478 12.9335 10.3788C12.7832 10.5099 12.6855 10.6909 12.6584 10.8884L12.6507 11.0006V19.8011L12.6584 19.9133C12.6856 20.1108 12.7833 20.2917 12.9336 20.4227C13.0838 20.5537 13.2764 20.6259 13.4757 20.6259C13.6751 20.6259 13.8677 20.5537 14.0179 20.4227C14.1682 20.2917 14.2659 20.1108 14.2931 19.9133L14.3008 19.8011V11.0006L14.2931 10.8884C14.266 10.6909 14.1683 10.5099 14.018 10.3788C13.8677 10.2478 13.6751 10.1756 13.4757 10.1756ZM11.0006 2.20012C10.4455 2.19995 9.91093 2.40958 9.50392 2.787C9.09692 3.16442 8.84762 3.68173 8.80599 4.23523L8.80049 4.40024H13.2007L13.1952 4.23523C13.1536 3.68173 12.9043 3.16442 12.4973 2.787C12.0903 2.40958 11.5557 2.19995 11.0006 2.20012Z" fill="#FF2F2F"/>
</svg>
