<svg width="26" height="26" viewBox="0 0 26 26" fill="none" xmlns="http://www.w3.org/2000/svg">
<path d="M24.96 23.53H1.04C0.46475 23.53 0 23.9947 0 24.57V25.74C0 25.883 0.117 26 0.26 26H25.74C25.883 26 26 25.883 26 25.74V24.57C26 23.9947 25.5352 23.53 24.96 23.53ZM4.73525 20.8C4.80025 20.8 4.86525 20.7935 4.93025 20.7837L10.3967 19.825C10.4617 19.812 10.5235 19.7827 10.569 19.734L24.3457 5.95725C24.3759 5.92718 24.3998 5.89147 24.4161 5.85215C24.4324 5.81284 24.4408 5.77069 24.4408 5.72812C24.4408 5.68556 24.4324 5.64341 24.4161 5.6041C24.3998 5.56478 24.3759 5.52907 24.3457 5.499L18.9443 0.09425C18.8825 0.0325001 18.8012 0 18.7135 0C18.6257 0 18.5445 0.0325001 18.4827 0.09425L4.706 13.871C4.65725 13.9197 4.628 13.9782 4.615 14.0432L3.65625 19.5097C3.62463 19.6839 3.63593 19.863 3.68916 20.0318C3.74239 20.2006 3.83596 20.3538 3.96175 20.4782C4.17625 20.6862 4.446 20.8 4.73525 20.8Z" fill="#027900"/>
</svg>
