<svg width="29" height="29" viewBox="0 0 29 29" fill="none" xmlns="http://www.w3.org/2000/svg">
<path d="M14.0528 0.0163858C8.32024 0.0163858 2.8766 -0.493561 0.797338 4.84273C-0.0615212 7.04671 0.0632029 9.90905 0.0632029 14.0076C0.0632029 17.604 -0.0520485 20.9842 0.797338 23.1708C2.87186 28.5103 8.35972 27.9987 14.0497 27.9987C19.5391 27.9987 25.199 28.5703 27.3036 23.1708C28.164 20.9447 28.0377 18.125 28.0377 14.0076C28.0377 8.54182 28.3392 5.01324 25.6885 2.36404C23.0045 -0.319895 19.3749 0.0163858 14.0465 0.0163858H14.0528ZM12.7993 2.5377C24.757 2.51876 26.2789 1.18942 25.439 19.6565C25.1406 26.1879 20.1674 25.4711 14.0544 25.4711C2.90817 25.4711 2.58768 25.1522 2.58768 14.0013C2.58768 2.72084 3.4718 2.54402 12.7993 2.53455V2.5377ZM21.5205 4.86009C20.5937 4.86009 19.8422 5.6116 19.8422 6.53834C19.8422 7.46509 20.5937 8.21659 21.5205 8.21659C22.4472 8.21659 23.1987 7.46509 23.1987 6.53834C23.1987 5.6116 22.4472 4.86009 21.5205 4.86009ZM14.0528 6.82252C10.0853 6.82252 6.86934 10.0401 6.86934 14.0076C6.86934 17.9751 10.0853 21.191 14.0528 21.191C18.0203 21.191 21.2347 17.9751 21.2347 14.0076C21.2347 10.0401 18.0203 6.82252 14.0528 6.82252ZM14.0528 9.34384C20.218 9.34384 20.2259 18.6713 14.0528 18.6713C7.88924 18.6713 7.87976 9.34384 14.0528 9.34384Z" fill="white"/>
</svg>
