<svg width="11" height="11" viewBox="0 0 11 11" fill="none" xmlns="http://www.w3.org/2000/svg">
<path d="M7.21875 5.5C7.21875 5.95584 7.03767 6.39301 6.71534 6.71534C6.39301 7.03767 5.95584 7.21875 5.5 7.21875C5.04416 7.21875 4.60699 7.03767 4.28466 6.71534C3.96233 6.39301 3.78125 5.95584 3.78125 5.5C3.78125 5.40203 3.79156 5.30635 3.80932 5.21354H3.20833V7.50349C3.20833 7.66276 3.33724 7.79167 3.49651 7.79167H7.50406C7.58039 7.79151 7.65354 7.76109 7.70746 7.70706C7.76138 7.65303 7.79167 7.57982 7.79167 7.50349V5.21354H7.19068C7.20844 5.30635 7.21875 5.40203 7.21875 5.5ZM5.5 6.64583C5.65051 6.6458 5.79954 6.61611 5.93858 6.55848C6.07762 6.50085 6.20394 6.41639 6.31035 6.30994C6.41675 6.20349 6.50114 6.07712 6.5587 5.93805C6.61626 5.79898 6.64587 5.64994 6.64583 5.49943C6.6458 5.34892 6.61611 5.19989 6.55848 5.06085C6.50085 4.92181 6.41639 4.79548 6.30994 4.68908C6.20349 4.58268 6.07712 4.49829 5.93805 4.44073C5.79898 4.38316 5.64994 4.35356 5.49943 4.35359C5.19546 4.35367 4.90397 4.47449 4.68908 4.68949C4.4742 4.90448 4.35352 5.19603 4.35359 5.5C4.35367 5.80397 4.47449 6.09546 4.68949 6.31035C4.90448 6.52523 5.19603 6.64591 5.5 6.64583ZM6.875 4.29687H7.56193C7.60756 4.29688 7.65134 4.27878 7.68366 4.24657C7.71599 4.21435 7.73422 4.17064 7.73437 4.125V3.43807C7.73437 3.39234 7.71621 3.34847 7.68387 3.31613C7.65153 3.28379 7.60766 3.26562 7.56193 3.26562H6.875C6.82926 3.26562 6.7854 3.28379 6.75306 3.31613C6.72072 3.34847 6.70255 3.39234 6.70255 3.43807V4.125C6.70312 4.21953 6.78047 4.29687 6.875 4.29687ZM5.5 0C4.04131 0 2.64236 0.579462 1.61091 1.61091C0.579462 2.64236 0 4.04131 0 5.5C0 6.95869 0.579462 8.35764 1.61091 9.38909C2.64236 10.4205 4.04131 11 5.5 11C6.22227 11 6.93747 10.8577 7.60476 10.5813C8.27205 10.3049 8.87836 9.89981 9.38909 9.38909C9.89981 8.87836 10.3049 8.27205 10.5813 7.60476C10.8577 6.93747 11 6.22227 11 5.5C11 4.77773 10.8577 4.06253 10.5813 3.39524C10.3049 2.72795 9.89981 2.12163 9.38909 1.61091C8.87836 1.10019 8.27205 0.695063 7.60476 0.418663C6.93747 0.142262 6.22227 0 5.5 0ZM8.36458 7.72807C8.36458 8.07812 8.07812 8.36458 7.72807 8.36458H3.27193C2.92187 8.36458 2.63542 8.07812 2.63542 7.72807V3.27193C2.63542 2.92187 2.92187 2.63542 3.27193 2.63542H7.72807C8.07812 2.63542 8.36458 2.92187 8.36458 3.27193V7.72807Z" fill="#2A282B"/>
</svg>
