<svg width="105" height="28" viewBox="0 0 105 28" fill="none" xmlns="http://www.w3.org/2000/svg">
<g clip-path="url(#clip0)">
<path d="M18.4133 3.2192C19.4135 4.23892 20.207 5.44951 20.7483 6.78185C21.2896 8.11419 21.5683 9.54219 21.5683 10.9843C21.5683 12.4264 21.2896 13.8544 20.7483 15.1868C20.207 16.5191 19.4135 17.7297 18.4133 18.7494C17.4217 19.787 16.2331 20.6075 14.92 21.1609C13.6068 21.7143 12.1968 21.9889 10.7761 21.968C9.35784 21.9905 7.95011 21.7165 6.63974 21.163C5.32936 20.6094 4.14413 19.788 3.15714 18.7494C1.13677 16.6892 0.00177002 13.8952 0.00177002 10.982C0.00177002 8.06873 1.13677 5.27476 3.15714 3.21455C4.14663 2.18125 5.33295 1.36517 6.64318 0.816469C7.9534 0.267767 9.35985 -0.00196616 10.7761 0.0238482C12.1953 -0.000897501 13.6046 0.269705 14.9177 0.819114C16.2308 1.36852 17.4203 2.18519 18.4133 3.2192ZM5.01854 5.14013C3.49323 6.69685 2.63646 8.80722 2.63646 11.0076C2.63646 13.2079 3.49323 15.3183 5.01854 16.875C5.7643 17.6536 6.65779 18.2691 7.64452 18.6841C8.63125 19.0991 9.69055 19.3049 10.7578 19.289C11.8281 19.3072 12.8908 19.1025 13.8808 18.6874C14.8709 18.2724 15.7673 17.6556 16.5154 16.875C18.0407 15.3183 18.8975 13.2079 18.8975 11.0076C18.8975 8.80722 18.0407 6.69685 16.5154 5.14013C15.7695 4.35565 14.8737 3.73545 13.8834 3.31786C12.8931 2.90026 11.8294 2.69413 10.7578 2.71222C9.6893 2.69614 8.62885 2.90325 7.64179 3.3208C6.65474 3.73836 5.76199 4.35751 5.01854 5.14013Z" fill="white"/>
<path d="M26.8078 15.3721C26.7702 16.4138 27.1402 17.4281 27.8362 18.1918C28.5322 18.9554 29.4973 19.406 30.5191 19.4442C31.541 19.4824 32.5358 19.1053 33.2849 18.3957C34.034 17.6861 34.4759 16.7022 34.5134 15.6605C34.5179 15.5706 34.5179 15.4806 34.5134 15.3907V7.34419C34.5158 6.98844 34.6554 6.64796 34.9022 6.3964C35.1489 6.14484 35.4829 6.00244 35.8319 6H35.8638C36.0345 5.99786 36.2037 6.0319 36.3608 6.09996C36.5178 6.16802 36.6593 6.26861 36.7762 6.39535C36.8986 6.51608 36.996 6.66061 37.0626 6.82039C37.1292 6.98018 37.1637 7.15197 37.164 7.32559V15.3721C37.164 16.2431 36.9958 17.1056 36.6688 17.9103C36.3419 18.715 35.8627 19.4461 35.2585 20.062C34.6544 20.6779 33.9372 21.1665 33.1479 21.4998C32.3586 21.8331 31.5126 22.0047 30.6583 22.0047C29.8039 22.0047 28.958 21.8331 28.1686 21.4998C27.3793 21.1665 26.6621 20.6779 26.058 20.062C25.4539 19.4461 24.9747 18.715 24.6477 17.9103C24.3208 17.1056 24.1525 16.2431 24.1525 15.3721V7.34419C24.1528 7.17057 24.1873 6.99878 24.2539 6.839C24.3205 6.67921 24.4179 6.53468 24.5403 6.41396C24.6572 6.28721 24.7987 6.18662 24.9558 6.11856C25.1129 6.05051 25.2821 6.01647 25.4528 6.01861H25.4984C25.6689 6.01758 25.8378 6.05213 25.9947 6.12012C26.1516 6.18811 26.2932 6.2881 26.4108 6.41396C26.5328 6.535 26.6299 6.6796 26.6965 6.83931C26.7631 6.99902 26.7978 7.17065 26.7986 7.34419L26.8078 15.3721Z" fill="white"/>
<path d="M41.9042 3.21861C41.6993 3.22106 41.4959 3.18235 41.3057 3.10467C41.1155 3.02699 40.9421 2.91187 40.7955 2.76589C40.649 2.6199 40.532 2.44591 40.4514 2.25385C40.3708 2.06178 40.3281 1.85541 40.3257 1.64651V1.6093C40.3227 1.40102 40.3599 1.19416 40.4353 1.00055C40.5107 0.806947 40.6228 0.630381 40.7652 0.480939C40.9075 0.331497 41.0773 0.212106 41.2649 0.129586C41.4526 0.0470663 41.6543 0.00303307 41.8586 1.36681e-06H41.9042C42.1095 -0.00228753 42.3131 0.0377323 42.5028 0.117658C42.6925 0.197585 42.8645 0.315769 43.0083 0.465118C43.1567 0.610218 43.2739 0.785218 43.3525 0.978994C43.431 1.17277 43.4692 1.38108 43.4645 1.5907C43.4633 2.01714 43.2966 2.42576 43.0008 2.72729C42.705 3.02883 42.3042 3.19877 41.886 3.2L41.9042 3.21861ZM41.9042 6.0093C42.0752 6.00451 42.2453 6.03734 42.4027 6.10556C42.5602 6.17378 42.7013 6.27579 42.8167 6.40465C42.939 6.52538 43.0364 6.66991 43.103 6.82969C43.1696 6.98948 43.2041 7.16127 43.2044 7.33488V20.6372C43.1997 20.9885 43.0607 21.3241 42.8171 21.5725C42.5734 21.8209 42.2442 21.9626 41.8996 21.9674H41.8723C41.7021 21.9666 41.5337 21.9312 41.377 21.8633C41.2204 21.7955 41.0785 21.6964 40.9598 21.5721C40.8355 21.4529 40.7368 21.3086 40.6701 21.1485C40.6033 20.9884 40.5699 20.8158 40.572 20.6419V7.33954C40.5757 6.98941 40.7151 6.655 40.9598 6.4093C41.0785 6.28495 41.2204 6.18594 41.377 6.11806C41.5337 6.05019 41.7021 6.0148 41.8723 6.01395L41.9042 6.0093Z" fill="white"/>
<path d="M47.9446 27.9907C47.774 27.9928 47.6048 27.9588 47.4477 27.8908C47.2906 27.8227 47.1491 27.7221 47.0322 27.5954C46.9098 27.4746 46.8124 27.3301 46.7458 27.1703C46.6792 27.0105 46.6447 26.8387 46.6444 26.6651V13.9768C46.6551 12.1494 47.2791 10.3809 48.4126 8.96534C49.5461 7.54977 51.1209 6.5725 52.8748 6.19607C54.6288 5.81963 56.4564 6.06673 58.0535 6.89625C59.6506 7.72578 60.921 9.08774 61.6534 10.7556C62.3858 12.4234 62.5361 14.2966 62.0792 16.0637C61.6223 17.8307 60.5858 19.3849 59.1421 20.468C57.6984 21.551 55.9346 22.0975 54.1439 22.0166C52.3532 21.9357 50.6437 21.2323 49.2996 20.0233V26.6744C49.2993 26.848 49.2648 27.0198 49.1982 27.1796C49.1316 27.3394 49.0342 27.4839 48.9118 27.6047C48.7942 27.7305 48.6526 27.8305 48.4957 27.8985C48.3388 27.9665 48.1699 28.001 47.9994 28L47.9446 27.9907ZM58.1321 17.6977C58.9906 16.8291 59.5298 15.6858 59.6592 14.4598C59.7887 13.2338 59.5005 11.9997 58.8431 10.9647C58.1856 9.92973 57.1989 9.15681 56.0487 8.77572C54.8984 8.39463 53.6545 8.42857 52.5259 8.87184C51.3972 9.31511 50.4525 10.1407 49.8503 11.2101C49.2481 12.2795 49.0251 13.5275 49.2187 14.7447C49.4123 15.9618 50.0107 17.0741 50.9135 17.8946C51.8163 18.7152 52.9685 19.1942 54.1767 19.2512H54.4823C55.1629 19.263 55.8385 19.1311 56.4667 18.8638C57.0948 18.5964 57.6619 18.1994 58.1321 17.6977Z" fill="white"/>
<path d="M67.4026 15.3721C67.3651 16.4139 67.735 17.4281 68.431 18.1918C69.1271 18.9555 70.0921 19.406 71.114 19.4442C72.1358 19.4824 73.1307 19.1053 73.8797 18.3957C74.6288 17.6861 75.0707 16.7022 75.1082 15.6605C75.1128 15.5706 75.1128 15.4806 75.1082 15.3907V7.3442C75.1142 6.99051 75.2562 6.65337 75.5037 6.40543C75.7512 6.15748 76.0843 6.01856 76.4313 6.01862H76.4586C76.6297 6.01382 76.7997 6.04665 76.9571 6.11487C77.1146 6.1831 77.2558 6.28511 77.3711 6.41397C77.4935 6.53469 77.5909 6.67922 77.6575 6.83901C77.7241 6.99879 77.7586 7.17058 77.7589 7.3442V15.3721C77.714 17.1014 77.0086 18.7444 75.793 19.9513C74.5774 21.1583 72.9476 21.8336 71.2508 21.8336C69.554 21.8336 67.9243 21.1583 66.7087 19.9513C65.4931 18.7444 64.7877 17.1014 64.7428 15.3721V7.3442C64.7465 6.99408 64.8859 6.65966 65.1306 6.41397C65.2482 6.28811 65.3898 6.18812 65.5467 6.12013C65.7036 6.05214 65.8725 6.01759 66.043 6.01862H66.0841C66.2548 6.01648 66.424 6.05052 66.5811 6.11857C66.7381 6.18663 66.8796 6.28722 66.9965 6.41397C67.1189 6.53469 67.2163 6.67922 67.2829 6.83901C67.3495 6.99879 67.384 7.17058 67.3843 7.3442L67.4026 15.3721Z" fill="white"/>
<path d="M84.6524 8.70698C84.398 8.70192 84.1453 8.75007 83.9099 8.84847C83.6745 8.94687 83.4614 9.09342 83.2837 9.27908C83.1033 9.46126 82.961 9.67884 82.8653 9.91866C82.7697 10.1585 82.7227 10.4156 82.7271 10.6744C82.7228 11.0334 82.8204 11.386 83.0082 11.6898C83.196 11.9935 83.466 12.2353 83.7856 12.3861C84.5985 12.69 85.4289 12.9431 86.272 13.1442C87.1384 13.3498 87.945 13.7609 88.6261 14.3442C88.9971 14.7362 89.2831 15.2034 89.4655 15.7155C89.6478 16.2275 89.7225 16.7729 89.6846 17.3163C89.6846 17.9271 89.5666 18.5319 89.3373 19.0962C89.108 19.6605 88.772 20.1733 88.3483 20.6052C87.9247 21.0371 87.4217 21.3797 86.8682 21.6134C86.3147 21.8471 85.7214 21.9674 85.1223 21.9674H81.3767C81.0341 21.9603 80.7074 21.8184 80.4651 21.5713C80.2227 21.3242 80.0835 20.9912 80.0765 20.6419V20.6093C80.0768 20.4357 80.1113 20.2639 80.1779 20.1041C80.2445 19.9443 80.3419 19.7998 80.4643 19.6791C80.5812 19.5523 80.7227 19.4517 80.8798 19.3837C81.0368 19.3156 81.2061 19.2816 81.3767 19.2837H85.2637C85.5154 19.2849 85.7648 19.2356 85.9977 19.1386C86.2307 19.0415 86.4426 18.8987 86.6213 18.7181C86.8001 18.5376 86.9423 18.3229 87.0397 18.0864C87.1371 17.8499 87.1878 17.5961 87.189 17.3395C87.1937 16.9929 87.0944 16.653 86.9044 16.3654C86.7144 16.0778 86.4429 15.8562 86.126 15.7302C85.9618 15.6496 85.1345 15.3954 83.6442 14.9674C82.776 14.7517 81.9696 14.3311 81.29 13.7395C80.92 13.3323 80.635 12.8528 80.4522 12.3299C80.2695 11.807 80.1929 11.2517 80.227 10.6977C80.2342 9.46637 80.7172 8.28758 81.5712 7.4169C82.4253 6.54622 83.5815 6.05384 84.7893 6.04652H87.4263C87.5994 6.04591 87.771 6.08007 87.9312 6.14705C88.0914 6.21404 88.237 6.31254 88.3599 6.43693C88.4828 6.56132 88.5804 6.70916 88.6472 6.87201C88.714 7.03486 88.7487 7.20953 88.7493 7.38605V7.44187C88.754 7.61622 88.7218 7.78956 88.6549 7.95009C88.588 8.11061 88.4879 8.25455 88.3615 8.3721C88.2431 8.49687 88.1013 8.59616 87.9446 8.66406C87.7879 8.73197 87.6194 8.76713 87.4491 8.76745L84.6524 8.70698Z" fill="white"/>
<path d="M93.3344 0.0232558C93.5039 0.0214137 93.6722 0.0536391 93.8295 0.118092C93.9869 0.182545 94.1302 0.277963 94.2514 0.398897C94.3725 0.519831 94.4691 0.663912 94.5357 0.822914C94.6022 0.981915 94.6374 1.15272 94.6392 1.32558V7.32558C95.6076 6.59715 96.7554 6.15708 97.9547 6.05439C99.154 5.9517 100.358 6.19041 101.432 6.74394C102.506 7.29748 103.408 8.1441 104.038 9.18953C104.668 10.235 105.001 11.4382 105 12.6651V20.6698C104.995 21.0211 104.856 21.3566 104.613 21.6051C104.369 21.8535 104.04 21.9952 103.695 22H103.668C103.497 22.001 103.328 21.9665 103.172 21.8985C103.015 21.8305 102.873 21.7305 102.755 21.6047C102.631 21.4854 102.532 21.3412 102.466 21.1811C102.399 21.0209 102.366 20.8484 102.368 20.6744V12.6419C102.368 11.5995 101.961 10.5998 101.238 9.86277C100.516 9.12571 99.535 8.71163 98.5125 8.71163C97.4901 8.71163 96.5095 9.12571 95.7866 9.86277C95.0636 10.5998 94.6574 11.5995 94.6574 12.6419V20.6465C94.6601 20.8202 94.6274 20.9925 94.5615 21.1526C94.4955 21.3127 94.3977 21.4571 94.2742 21.5767C94.1566 21.7026 94.015 21.8026 93.8581 21.8706C93.7012 21.9386 93.5323 21.9731 93.3618 21.9721H93.3207C92.978 21.965 92.6514 21.823 92.409 21.5759C92.1667 21.3289 92.0275 20.9958 92.0205 20.6465V1.33488C92.0192 0.983684 92.1543 0.646241 92.3962 0.396167C92.638 0.146093 92.9671 0.00368172 93.3116 0V0L93.3344 0.0232558Z" fill="white"/>
</g>
<defs>
<clipPath id="clip0">
<rect width="105" height="28" fill="white"/>
</clipPath>
</defs>
</svg>
