<svg width="11" height="11" viewBox="0 0 11 11" fill="none" xmlns="http://www.w3.org/2000/svg">
<path d="M5.5 0C2.46272 0 0 2.46272 0 5.5C0 8.53728 2.46272 11 5.5 11C8.53728 11 11 8.53728 11 5.5C11 2.46272 8.53728 0 5.5 0ZM8.14319 4.14587C8.14687 4.20357 8.14687 4.26373 8.14687 4.32266C8.14687 6.12489 6.77433 8.20089 4.26618 8.20089C3.49275 8.20089 2.77578 7.97623 2.17176 7.58951C2.28225 7.60179 2.38783 7.6067 2.50078 7.6067C3.13917 7.6067 3.726 7.39062 4.19375 7.02478C3.59464 7.0125 3.09129 6.61964 2.91942 6.07946C3.12935 6.11016 3.31841 6.11016 3.53449 6.05491C3.226 5.99224 2.94873 5.8247 2.74977 5.58076C2.55082 5.33682 2.44245 5.03153 2.44308 4.71674V4.69955C2.62355 4.80145 2.83594 4.86406 3.05815 4.87266C2.87135 4.74816 2.71815 4.5795 2.61215 4.38162C2.50614 4.18374 2.4506 3.96277 2.45045 3.73828C2.45045 3.48415 2.51674 3.25212 2.63583 3.05078C2.97823 3.47229 3.4055 3.81703 3.88986 4.06259C4.37422 4.30816 4.90483 4.44905 5.44721 4.47612C5.25446 3.54922 5.94687 2.79911 6.77924 2.79911C7.1721 2.79911 7.52567 2.96362 7.77489 3.22879C8.08304 3.17109 8.37768 3.05569 8.6404 2.901C8.5385 3.21652 8.32489 3.48292 8.0413 3.65112C8.31629 3.62165 8.58147 3.54554 8.82701 3.43873C8.64163 3.71127 8.4096 3.95313 8.14319 4.14587Z" fill="#2A282B"/>
</svg>
