<svg width="38" height="31" viewBox="0 0 38 31" fill="none" xmlns="http://www.w3.org/2000/svg">
<path d="M38 3.65513C36.5869 4.275 35.0811 4.68587 33.5112 4.88538C35.1262 3.92112 36.3589 2.40587 36.9384 0.5795C35.4326 1.47725 33.7701 2.11138 31.9984 2.46525C30.5686 0.942875 28.5309 0 26.3079 0C21.9949 0 18.5226 3.50075 18.5226 7.79238C18.5226 8.40987 18.5749 9.00362 18.7031 9.56887C12.2265 9.253 6.49563 6.14888 2.64575 1.42025C1.97362 2.58637 1.57938 3.92112 1.57938 5.358C1.57938 8.056 2.96875 10.4476 5.03975 11.8322C3.78813 11.8085 2.56025 11.4451 1.52 10.8728C1.52 10.8965 1.52 10.9274 1.52 10.9583C1.52 14.744 4.22037 17.8885 7.7615 18.6129C7.12737 18.7862 6.43625 18.8694 5.719 18.8694C5.22025 18.8694 4.71675 18.8409 4.24412 18.7364C5.2535 21.8215 8.11775 24.0896 11.5235 24.1632C8.873 26.2366 5.50763 27.4859 1.86438 27.4859C1.2255 27.4859 0.61275 27.4574 0 27.379C3.45087 29.6044 7.54063 30.875 11.951 30.875C26.2865 30.875 34.124 19 34.124 8.70675C34.124 8.36237 34.1121 8.02987 34.0955 7.69975C35.6416 6.6025 36.9408 5.23212 38 3.65513Z" fill="#03A9F4"/>
</svg>
