<svg width="33" height="19" viewBox="0 0 33 19" fill="none" xmlns="http://www.w3.org/2000/svg">
<path fill-rule="evenodd" clip-rule="evenodd" d="M0.96503 0.964805C1.58313 0.372339 2.42133 0.0395095 3.29532 0.0395095C4.1693 0.0395095 5.00751 0.372339 5.6256 0.964805L16.4794 11.3717L27.3332 0.964805C27.6372 0.662964 28.0009 0.422204 28.4031 0.256575C28.8052 0.0909469 29.2377 0.00376574 29.6753 0.000119324C30.113 -0.00352709 30.547 0.0764334 30.9521 0.235336C31.3571 0.394239 31.7251 0.628902 32.0346 0.925632C32.3441 1.22236 32.5888 1.57522 32.7546 1.96361C32.9203 2.352 33.0037 2.76815 32.9999 3.18777C32.9961 3.60739 32.9051 4.02209 32.7324 4.40766C32.5597 4.79323 32.3086 5.14195 31.9938 5.43348L18.8097 18.0747C18.1916 18.6672 17.3534 19 16.4794 19C15.6054 19 14.7672 18.6672 14.1491 18.0747L0.96503 5.43348C0.347122 4.84083 0 4.03714 0 3.19914C0 2.36114 0.347122 1.55745 0.96503 0.964805Z" fill="white"/>
</svg>
